<svg width="29" height="19" viewBox="0 0 29 19" fill="none" xmlns="http://www.w3.org/2000/svg">
<path d="M0.996085 2.26575L13.0158 8.44872C13.4197 8.65589 13.9421 8.75411 14.4678 8.75411C14.9935 8.75411 15.5159 8.65589 15.9198 8.44872L27.9395 2.26575C28.7232 1.86215 29.4636 0.292236 28.0261 0.292236H0.911146C-0.526415 0.292236 0.214001 1.86215 0.996085 2.26575ZM28.3033 5.64651L15.9198 11.8264C15.3749 12.0996 14.9935 12.1318 14.4678 12.1318C13.9421 12.1318 13.5607 12.0996 13.0158 11.8264C12.4709 11.5532 1.58425 6.08848 0.69479 5.64497C0.069764 5.33191 0.0761745 5.69869 0.0761745 5.98106V17.173C0.0761745 17.8175 0.983264 18.7076 1.67881 18.7076H27.3209C28.0165 18.7076 28.9235 17.8175 28.9235 17.173V5.98259C28.9235 5.70022 28.93 5.33345 28.3033 5.64651Z" fill="#242732"/>
</svg>
