<svg id="visual" viewBox="0 0 960 540" width="960" height="540" xmlns="http://www.w3.org/2000/svg" xmlns:xlink="http://www.w3.org/1999/xlink" version="1.1"><rect x="0" y="0" width="960" height="540" fill="#edf2f8"></rect><path d="M0 431L12.3 430.5C24.7 430 49.3 429 74 426.8C98.7 424.7 123.3 421.3 148 418.2C172.7 415 197.3 412 221.8 415.5C246.3 419 270.7 429 295.2 432.3C319.7 435.7 344.3 432.3 369 436.3C393.7 440.3 418.3 451.7 443 457.7C467.7 463.7 492.3 464.3 517 461.7C541.7 459 566.3 453 591 447C615.7 441 640.3 435 664.8 434.7C689.3 434.3 713.7 439.7 738.2 439.8C762.7 440 787.3 435 812 433.3C836.7 431.7 861.3 433.3 886 440.8C910.7 448.3 935.3 461.7 947.7 468.3L960 475L960 541L947.7 541C935.3 541 910.7 541 886 541C861.3 541 836.7 541 812 541C787.3 541 762.7 541 738.2 541C713.7 541 689.3 541 664.8 541C640.3 541 615.7 541 591 541C566.3 541 541.7 541 517 541C492.3 541 467.7 541 443 541C418.3 541 393.7 541 369 541C344.3 541 319.7 541 295.2 541C270.7 541 246.3 541 221.8 541C197.3 541 172.7 541 148 541C123.3 541 98.7 541 74 541C49.3 541 24.7 541 12.3 541L0 541Z" fill="#3f448a"></path><path d="M0 427L12.3 434.8C24.7 442.7 49.3 458.3 74 467.2C98.7 476 123.3 478 148 472.7C172.7 467.3 197.3 454.7 221.8 447C246.3 439.3 270.7 436.7 295.2 435.5C319.7 434.3 344.3 434.7 369 437C393.7 439.3 418.3 443.7 443 451.7C467.7 459.7 492.3 471.3 517 469.3C541.7 467.3 566.3 451.7 591 447.5C615.7 443.3 640.3 450.7 664.8 456.8C689.3 463 713.7 468 738.2 469C762.7 470 787.3 467 812 468.5C836.7 470 861.3 476 886 471.5C910.7 467 935.3 452 947.7 444.5L960 437L960 541L947.7 541C935.3 541 910.7 541 886 541C861.3 541 836.7 541 812 541C787.3 541 762.7 541 738.2 541C713.7 541 689.3 541 664.8 541C640.3 541 615.7 541 591 541C566.3 541 541.7 541 517 541C492.3 541 467.7 541 443 541C418.3 541 393.7 541 369 541C344.3 541 319.7 541 295.2 541C270.7 541 246.3 541 221.8 541C197.3 541 172.7 541 148 541C123.3 541 98.7 541 74 541C49.3 541 24.7 541 12.3 541L0 541Z" fill="#6766a1"></path><path d="M0 476L12.3 475C24.7 474 49.3 472 74 471.8C98.7 471.7 123.3 473.3 148 472.8C172.7 472.3 197.3 469.7 221.8 467.2C246.3 464.7 270.7 462.3 295.2 465.8C319.7 469.3 344.3 478.7 369 478.3C393.7 478 418.3 468 443 462.5C467.7 457 492.3 456 517 459.2C541.7 462.3 566.3 469.7 591 472.2C615.7 474.7 640.3 472.3 664.8 474.2C689.3 476 713.7 482 738.2 483C762.7 484 787.3 480 812 481C836.7 482 861.3 488 886 491.5C910.7 495 935.3 496 947.7 496.5L960 497L960 541L947.7 541C935.3 541 910.7 541 886 541C861.3 541 836.7 541 812 541C787.3 541 762.7 541 738.2 541C713.7 541 689.3 541 664.8 541C640.3 541 615.7 541 591 541C566.3 541 541.7 541 517 541C492.3 541 467.7 541 443 541C418.3 541 393.7 541 369 541C344.3 541 319.7 541 295.2 541C270.7 541 246.3 541 221.8 541C197.3 541 172.7 541 148 541C123.3 541 98.7 541 74 541C49.3 541 24.7 541 12.3 541L0 541Z" fill="#8d89b8"></path><path d="M0 489L12.3 488.5C24.7 488 49.3 487 74 488C98.7 489 123.3 492 148 489.8C172.7 487.7 197.3 480.3 221.8 482.7C246.3 485 270.7 497 295.2 501.8C319.7 506.7 344.3 504.3 369 496.8C393.7 489.3 418.3 476.7 443 474.3C467.7 472 492.3 480 517 481C541.7 482 566.3 476 591 475.8C615.7 475.7 640.3 481.3 664.8 481.3C689.3 481.3 713.7 475.7 738.2 478.8C762.7 482 787.3 494 812 496C836.7 498 861.3 490 886 485C910.7 480 935.3 478 947.7 477L960 476L960 541L947.7 541C935.3 541 910.7 541 886 541C861.3 541 836.7 541 812 541C787.3 541 762.7 541 738.2 541C713.7 541 689.3 541 664.8 541C640.3 541 615.7 541 591 541C566.3 541 541.7 541 517 541C492.3 541 467.7 541 443 541C418.3 541 393.7 541 369 541C344.3 541 319.7 541 295.2 541C270.7 541 246.3 541 221.8 541C197.3 541 172.7 541 148 541C123.3 541 98.7 541 74 541C49.3 541 24.7 541 12.3 541L0 541Z" fill="#b3afd0"></path><path d="M0 487L12.3 491.3C24.7 495.7 49.3 504.3 74 506.2C98.7 508 123.3 503 148 503.3C172.7 503.7 197.3 509.3 221.8 509.7C246.3 510 270.7 505 295.2 500.3C319.7 495.7 344.3 491.3 369 492.2C393.7 493 418.3 499 443 499.5C467.7 500 492.3 495 517 495C541.7 495 566.3 500 591 502C615.7 504 640.3 503 664.8 503.2C689.3 503.3 713.7 504.7 738.2 506C762.7 507.3 787.3 508.7 812 505C836.7 501.3 861.3 492.7 886 488.2C910.7 483.7 935.3 483.3 947.7 483.2L960 483L960 541L947.7 541C935.3 541 910.7 541 886 541C861.3 541 836.7 541 812 541C787.3 541 762.7 541 738.2 541C713.7 541 689.3 541 664.8 541C640.3 541 615.7 541 591 541C566.3 541 541.7 541 517 541C492.3 541 467.7 541 443 541C418.3 541 393.7 541 369 541C344.3 541 319.7 541 295.2 541C270.7 541 246.3 541 221.8 541C197.3 541 172.7 541 148 541C123.3 541 98.7 541 74 541C49.3 541 24.7 541 12.3 541L0 541Z" fill="#d9d6e7"></path><path d="M0 505L12.3 507.7C24.7 510.3 49.3 515.7 74 516.2C98.7 516.7 123.3 512.3 148 511C172.7 509.7 197.3 511.3 221.8 513.3C246.3 515.3 270.7 517.7 295.2 519C319.7 520.3 344.3 520.7 369 521.2C393.7 521.7 418.3 522.3 443 519.8C467.7 517.3 492.3 511.7 517 508.8C541.7 506 566.3 506 591 506.3C615.7 506.7 640.3 507.3 664.8 509.2C689.3 511 713.7 514 738.2 516.7C762.7 519.3 787.3 521.7 812 520.2C836.7 518.7 861.3 513.3 886 510.7C910.7 508 935.3 508 947.7 508L960 508L960 541L947.7 541C935.3 541 910.7 541 886 541C861.3 541 836.7 541 812 541C787.3 541 762.7 541 738.2 541C713.7 541 689.3 541 664.8 541C640.3 541 615.7 541 591 541C566.3 541 541.7 541 517 541C492.3 541 467.7 541 443 541C418.3 541 393.7 541 369 541C344.3 541 319.7 541 295.2 541C270.7 541 246.3 541 221.8 541C197.3 541 172.7 541 148 541C123.3 541 98.7 541 74 541C49.3 541 24.7 541 12.3 541L0 541Z" fill="#ffffff"></path></svg>